M48
; DRILL file {KiCad 9.0.2} date 2026-09-02T20:26:37-0400
; FORMAT={-:-/ absolute / metric / decimal}
; #@! TF.CreationDate,2026-09-02T20:26:37-04:00
; #@! TF.GenerationSoftware,Kicad,Pcbnew,9.0.2
; #@! TF.FileFunction,MixedPlating,1,4
FMAT,2
METRIC
; #@! TA.AperFunction,Plated,PTH,ViaDrill
T1C0.300
; #@! TA.AperFunction,Plated,PTH,ComponentDrill
T2C0.800
; #@! TA.AperFunction,Plated,PTH,ComponentDrill
T3C1.000
; #@! TA.AperFunction,NonPlated,NPTH,ComponentDrill
T4C2.100
%
G90
G05
T1
X112.3Y-90.0
X112.35Y-87.51
X112.42Y-61.05
X112.42Y-66.05
X112.42Y-71.05
X112.42Y-76.05
X112.42Y-81.05
X112.42Y-96.05
X112.42Y-101.05
X112.42Y-106.05
X112.42Y-111.05
X116.85Y-76.35
X117.86Y-55.33
X117.96Y-60.95
X117.96Y-65.95
X117.96Y-70.95
X118.15Y-77.45
X118.2Y-85.7
X119.35Y-94.25
X120.2Y-116.8
X120.3Y-101.2
X120.3Y-106.2
X120.3Y-111.2
X122.86Y-55.33
X122.88Y-61.1
X122.88Y-66.1
X122.88Y-71.1
X123.5Y-92.75
X124.34Y-93.85
X124.5Y-94.8
X125.2Y-116.8
X125.53Y-101.12
X125.53Y-106.12
X125.53Y-111.12
X127.6Y-56.4
X127.62Y-66.13
X127.62Y-71.13
X127.62Y-76.13
X127.86Y-55.33
X129.9Y-59.7
X130.2Y-111.28
X130.2Y-116.8
X130.25Y-106.32
X130.6Y-100.45
X132.3Y-56.6
X132.45Y-83.85
X132.45Y-86.4
X132.5Y-85.15
X132.86Y-55.33
X133.1Y-58.4
X133.14Y-66.13
X133.14Y-71.13
X133.14Y-76.13
X134.25Y-102.5
X135.2Y-111.28
X135.2Y-116.8
X135.25Y-106.32
X136.33Y-95.65
X137.45Y-87.65
X137.86Y-55.33
X138.1Y-63.7
X138.25Y-96.55
X138.95Y-88.1
X139.35Y-92.15
X139.55Y-99.9
X139.7Y-63.7
X139.7Y-98.1
X140.2Y-75.6
X140.2Y-116.8
X140.81Y-106.27
X141.1Y-86.1
X142.6Y-110.45
X142.86Y-55.33
X143.395Y-88.081
X143.7Y-80.85
X144.05Y-89.4
X144.34Y-82.77
X144.9Y-94.85
X145.2Y-116.8
X145.5Y-92.05
X145.5Y-96.1
X145.81Y-106.27
X146.2Y-58.45
X147.037Y-69.468
X147.1Y-70.65
X147.55Y-90.88
X147.8Y-84.5
X147.8Y-85.5
X147.8Y-86.5
X147.86Y-55.33
X148.15Y-64.85
X148.62Y-91.08
X148.8Y-84.5
X148.8Y-85.5
X148.8Y-86.5
X148.81Y-80.58
X148.82Y-77.895
X149.2Y-58.8
X149.65Y-65.9
X149.65Y-92.0
X149.65Y-96.15
X149.72Y-106.22
X149.77Y-101.45
X149.8Y-84.5
X149.8Y-85.5
X149.8Y-86.5
X150.0Y-80.56
X150.0Y-90.6
X150.05Y-76.775
X150.2Y-116.8
X150.25Y-94.9
X150.6Y-66.0
X150.6Y-91.2
X151.25Y-78.075
X151.51Y-80.81
X152.6Y-117.25
X152.86Y-55.33
X153.0Y-89.55
X153.359Y-92.546
X153.45Y-88.75
X153.61Y-93.91
X153.7Y-87.95
X153.74Y-90.55
X153.8Y-62.8
X153.9Y-81.25
X154.1Y-76.55
X154.225Y-68.775
X154.25Y-87.0
X154.275Y-86.175
X154.429Y-80.739
X154.72Y-106.22
X154.77Y-101.45
X155.2Y-116.8
X155.7Y-87.95
X155.95Y-89.9
X156.6Y-84.75
X157.86Y-55.33
X157.89Y-107.85
X159.29Y-65.01
X159.29Y-70.01
X159.29Y-75.01
X159.45Y-60.7
X159.47Y-79.8
X159.9Y-95.42
X161.53Y-106.59
X161.76Y-111.77
X162.86Y-55.33
X163.04Y-90.97
X163.147Y-87.915
X163.36Y-65.01
X163.36Y-70.01
X163.36Y-75.01
X163.54Y-79.8
X163.75Y-84.35
X163.9Y-115.85
X165.2Y-81.65
X165.2Y-116.8
X167.5Y-109.1
X167.5Y-115.2
X167.74Y-79.77
X167.76Y-75.01
X167.86Y-55.33
X167.9Y-59.96
X167.9Y-64.96
X167.9Y-69.96
X168.1Y-83.65
X168.8Y-113.5
X168.8Y-115.2
X169.15Y-110.05
X169.65Y-88.17
X169.95Y-115.2
X170.08Y-91.55
X171.25Y-87.85
X171.3Y-115.2
X172.05Y-83.3
X172.14Y-91.86
X172.35Y-88.2
X172.72Y-74.98
X172.85Y-83.35
X172.86Y-55.33
X172.86Y-59.93
X172.86Y-64.93
X172.86Y-69.93
X173.45Y-87.85
X173.75Y-83.35
X173.85Y-79.6
X174.22Y-117.67
X174.4Y-116.793
X175.56Y-107.59
X175.6Y-86.65
X175.625Y-85.675
X176.1Y-88.05
X177.26Y-98.17
X177.825Y-85.035
X177.86Y-55.33
X178.05Y-88.85
X182.77Y-64.55
X182.77Y-69.55
X182.77Y-74.55
X182.77Y-79.55
X182.77Y-84.55
X182.77Y-89.55
X182.77Y-94.55
X182.77Y-104.55
X182.77Y-114.55
X184.13Y-105.84
T2
X152.6Y-111.1
X152.6Y-114.6
T3
X183.2Y-94.22
X183.2Y-96.76
X183.2Y-99.3
T4
X114.3Y-57.7
X114.3Y-115.0
X181.3Y-57.7
M30
